<?xml version="1.0" encoding="UTF-8" standalone="no"?><!-- Generator: Gravit.io --><svg xmlns="http://www.w3.org/2000/svg" xmlns:xlink="http://www.w3.org/1999/xlink" style="isolation:isolate" viewBox="0 0 1024 1024" width="1024pt" height="1024pt"><defs><clipPath id="_clipPath_FtTTGv4ZV0ZLI6nW8eRsfg56wSj0wDxk"><rect width="1024" height="1024"/></clipPath></defs><g clip-path="url(#_clipPath_FtTTGv4ZV0ZLI6nW8eRsfg56wSj0wDxk)"><g filter="url(#wNKM9v960De4SpuRVzXRupkJaxv02rNa)"><path d=" M 964.185 321.734 L 518.006 302.981 L 640.857 675.577 L 434.447 999.021 C 621.823 1029.026 817.905 948.376 926.42 778.333 C 1016.889 636.568 1025.37 465.773 964.185 321.734 Z " fill-rule="evenodd" fill="rgb(255,205,64)"/><path d=" M 455.032 1001.134 L 674 618 L 310.535 544.236 L 133.63 203.758 C 13.957 351.027 -14.239 561.165 78.765 740.163 C 156.256 889.305 299.804 982.026 455.032 1001.134 Z " fill-rule="evenodd" fill="rgb(15,157,88)"/><path d=" M 107.784 237.795 L 332 624 L 580 320 L 963.694 320 C 888.188 145.905 714.718 24 513 24 C 344.828 24 196.29 108.731 107.784 237.795 Z " fill-rule="evenodd" fill="rgb(219,68,55)"/></g><defs><filter id="wNKM9v960De4SpuRVzXRupkJaxv02rNa" x="-200%" y="-200%" width="400%" height="400%" filterUnits="objectBoundingBox" color-interpolation-filters="sRGB"><feGaussianBlur xmlns="http://www.w3.org/2000/svg" in="SourceGraphic" stdDeviation="3.8642481565551257"/><feOffset xmlns="http://www.w3.org/2000/svg" dx="0" dy="0" result="pf_100_offsetBlur"/><feFlood xmlns="http://www.w3.org/2000/svg" flood-color="#000000" flood-opacity="0.38"/><feComposite xmlns="http://www.w3.org/2000/svg" in2="pf_100_offsetBlur" operator="in" result="pf_100_dropShadow"/><feBlend xmlns="http://www.w3.org/2000/svg" in="SourceGraphic" in2="pf_100_dropShadow" mode="normal"/></filter></defs><path d=" M 773 485 L 722.5 535.5 L 760.375 535.5 L 760.375 649.125 L 785.625 649.125 L 785.625 535.5 L 823.5 535.5 M 848.75 762.75 L 697.25 762.75 C 683.236 762.75 672 751.388 672 737.5 L 672 586 C 672 572.055 683.305 560.75 697.25 560.75 L 735.125 560.75 L 735.125 586 L 697.25 586 L 697.25 737.5 L 848.75 737.5 L 848.75 586 L 810.875 586 L 810.875 560.75 L 848.75 560.75 C 862.695 560.75 874 572.055 874 586 L 874 737.5 C 874 751.445 862.695 762.75 848.75 762.75 Z " fill="rgb(255,221,128)"/><defs><filter id="6L1IpioqIWsKoynLz3VwTC81mQz5tlX6" x="-200%" y="-200%" width="400%" height="400%" filterUnits="objectBoundingBox" color-interpolation-filters="sRGB"><feGaussianBlur xmlns="http://www.w3.org/2000/svg" in="SourceGraphic" stdDeviation="5.152330875406834"/><feOffset xmlns="http://www.w3.org/2000/svg" dx="0" dy="0" result="pf_100_offsetBlur"/><feFlood xmlns="http://www.w3.org/2000/svg" flood-color="#000000" flood-opacity="0.29"/><feComposite xmlns="http://www.w3.org/2000/svg" in2="pf_100_offsetBlur" operator="in" result="pf_100_dropShadow"/><feBlend xmlns="http://www.w3.org/2000/svg" in="SourceGraphic" in2="pf_100_dropShadow" mode="normal"/></filter></defs><g filter="url(#6L1IpioqIWsKoynLz3VwTC81mQz5tlX6)"><circle vector-effect="non-scaling-stroke" cx="508" cy="517" r="198" fill="rgb(66,133,244)" stroke-width="26" stroke="rgb(255,255,255)" stroke-linejoin="miter" stroke-linecap="butt" stroke-miterlimit="3"/></g></g></svg>